<?xml version="1.0" encoding="UTF-8"?>
<svg id="Layer_1" data-name="Layer 1" xmlns="http://www.w3.org/2000/svg" viewBox="0 0 76.18 49.6">
  <defs>
    <style>
      .cls-1 {
        fill: #0093e9;
      }
    </style>
  </defs>
  <path class="cls-1" d="M76.11,48.68c.04-.13,.07-.26,.07-.41V1.32c0-.14-.03-.28-.07-.41,0-.02,0-.04-.02-.05-.06-.15-.14-.29-.24-.41,0,0,0-.02-.02-.03,0,0,0,0-.01-.01-.11-.12-.24-.21-.39-.29-.01,0-.02-.01-.03-.02-.14-.06-.29-.1-.45-.11-.02,0-.03,0-.05,0-.02,0-.03,0-.04,0H1.33s-.03,0-.04,0c-.01,0-.03,0-.04,0-.16,.01-.32,.05-.46,.11,0,0-.02,0-.02,.01-.15,.07-.28,.17-.4,.29,0,0,0,0-.01,0,0,0,0,.02-.02,.02-.1,.12-.19,.26-.24,.41,0,.02-.01,.04-.02,.05-.04,.13-.07,.27-.07,.41V48.28c0,.14,.03,.28,.07,.41,0,.02,0,.03,.02,.05,.06,.15,.14,.29,.25,.41,0,0,0,.02,.01,.02,0,0,.01,0,.02,.02,.04,.05,.09,.08,.14,.12,.02,.02,.04,.04,.06,.05,.06,.04,.12,.07,.19,.1,.02,0,.03,.02,.05,.02,.16,.07,.34,.11,.52,.11H74.85c.18,0,.36-.04,.52-.11,.02-.01,.05-.03,.07-.04,.05-.03,.11-.06,.16-.09,.03-.02,.05-.04,.08-.06,.05-.04,.09-.07,.13-.11,0,0,.02-.01,.02-.02,0,0,0-.02,.02-.03,.1-.12,.19-.25,.24-.4,0-.02,.01-.04,.02-.06ZM2.65,4.33L24.96,24.71,2.65,45.25V4.33ZM48.38,23.71c-.09,.06-.19,.11-.27,.2-.03,.03-.04,.07-.06,.11l-9.96,9.1L4.74,2.65H71.44l-23.06,21.06Zm-21.45,2.79l10.27,9.38c.25,.23,.57,.35,.89,.35s.64-.12,.89-.35l10.14-9.26,22.31,20.33H4.72L26.93,26.51Zm24.16-1.68L73.53,4.33V45.27l-22.44-20.45Z"/>
</svg>